<svg height="511pt" viewBox="-12 1 511 511.999" width="511pt" xmlns="http://www.w3.org/2000/svg"><path d="M361.48 309.242l-17.652 9.778a7.5 7.5 0 0 0-2.926 10.195 7.49 7.49 0 0 0 6.567 3.867 7.49 7.49 0 0 0 3.629-.937l17.652-9.782a7.499 7.499 0 1 0-7.27-13.121zm0-21.282l-17.652 9.778a7.5 7.5 0 0 0-2.926 10.2 7.494 7.494 0 0 0 6.567 3.863 7.466 7.466 0 0 0 3.625-.938l17.656-9.781a7.501 7.501 0 0 0-7.27-13.121zm0 0"/><path d="M485.938 377.816a7.582 7.582 0 0 0 1.12-3.93v-65.98a7.5 7.5 0 0 0-7.503-7.5 7.5 7.5 0 0 0-7.5 7.5v54.426l-72.121-32.168V190.797l72.12-39.957v124.406a7.5 7.5 0 0 0 7.5 7.5 7.5 7.5 0 0 0 7.505-7.5V138.11c0-2.675-1.524-5.261-3.868-6.558L247.414.926a7.598 7.598 0 0 0-7.27 0L4.368 131.55C1.984 132.867.47 135.48.5 138.199v235.688c0 2.68 1.52 5.261 3.867 6.562l103.883 57.555a7.5 7.5 0 0 0 7.27-13.121l-90.735-50.27 69.973-31.207 141.52 78.403v69.972l-91.012-50.418a7.499 7.499 0 0 0-10.196 2.926 7.503 7.503 0 0 0 2.926 10.195l102.149 56.59c2.226 1.235 5.043 1.235 7.27 0l107.128-59.355a7.5 7.5 0 0 0-7.27-13.121l-95.996 53.183V421.81l141.52-78.403 69.973 31.207-85.77 47.52a7.498 7.498 0 0 0-2.926 10.195 7.49 7.49 0 0 0 10.196 2.926l98.921-54.805a7.615 7.615 0 0 0 2.746-2.633zm-242.16-265.222l133.179 73.785-133.18 73.781-133.175-73.781zm148.656 65.21L251.277 99.603V20.215l212.801 117.894zM236.277 99.603L95.125 177.805l-71.648-39.696 212.8-117.894zM15.5 150.84l72.121 39.957v139.367L15.5 362.332zm87.125 48.27l54.441 30.16 79.211 43.886V404.66l-133.652-74.047zm148.652 74.046l133.657-74.047v131.504L251.277 404.66zm0 0"/></svg>