<svg xmlns="http://www.w3.org/2000/svg" width="512" height="512" viewBox="0 0 612 612"><path d="M0 390.345c0 55.219 41.338 101.035 95.639 109.882H305.11L194.727 376.046h55.998V250.864h111.023v125.182h55.524L306.891 500.227h209.471C570.662 491.38 612 445.563 612 390.345c0-48.515-31.936-89.797-76.527-105.097-1.614-96.084-82.343-173.474-181.653-173.474-71.632 0-133.583 40.253-163.181 98.754-13.993-15.021-34.244-24.48-56.75-24.48-42.255 0-76.5 33.271-76.5 74.275a72.715 72.715 0 0 0 6.51 30.099C26.038 308.615 0 346.531 0 390.345z" fill="#FFF"/></svg>