<svg xmlns="http://www.w3.org/2000/svg" viewBox="0 0 33 33"><path d="M30.128 33H2.872A2.875 2.875 0 0 1 0 30.129V2.872A2.875 2.875 0 0 1 2.872 0h27.257A2.875 2.875 0 0 1 33 2.872v27.257A2.875 2.875 0 0 1 30.128 33zM2.872 1C1.839 1 1 1.84 1 2.872v27.257C1 31.16 1.839 32 2.872 32h27.257C31.161 32 32 31.16 32 30.129V2.872A1.874 1.874 0 0 0 30.128 1H2.872z"/><path d="M12.625 10.485H6.292a.5.5 0 0 1 0-1h6.333a.5.5 0 0 1 0 1z"/><path d="M9.458 13.652a.5.5 0 0 1-.5-.5V6.818a.5.5 0 0 1 1 0v6.334c0 .277-.223.5-.5.5zm2.24 13.031a.502.502 0 0 1-.354-.146l-4.479-4.479a.5.5 0 0 1 .707-.707l4.479 4.479a.5.5 0 0 1-.353.853z"/><path d="M7.219 26.683a.5.5 0 0 1-.354-.853l4.479-4.479a.5.5 0 0 1 .707.707l-4.479 4.479a.498.498 0 0 1-.353.146zm19.489-16.198h-6.333a.5.5 0 0 1 0-1h6.333a.5.5 0 0 1 0 1zm0 15.578h-6.333a.5.5 0 0 1 0-1h6.333a.5.5 0 0 1 0 1zm0-3.24h-6.333a.5.5 0 0 1 0-1h6.333a.5.5 0 0 1 0 1z"/></svg>