<svg xmlns="http://www.w3.org/2000/svg" viewBox="0 0 512.002 512.002"><path d="M508.14 56.775a10 10 0 0 0-8.603-1.797l-47.576 12.097a95.062 95.062 0 0 1-23.389 2.926h-69.819c-22.649 0-41.568 16.251-44.984 38.643-1.914 12.55-12.519 21.658-25.213 21.658h-2.555v-20.889c17.247-10.268 28.832-29.093 28.832-50.581C314.834 26.392 288.442 0 256.001 0s-58.832 26.392-58.832 58.832c0 21.488 11.585 40.313 28.832 50.581v20.889h-2.555c-12.694 0-23.299-9.108-25.213-21.658-3.416-22.392-22.335-38.643-44.984-38.643H83.43a95 95 0 0 1-23.388-2.926L12.465 54.979A10 10 0 0 0 .001 64.67c0 21.109 8.144 40.346 21.442 54.758.292 24.269 11.791 45.877 29.554 59.903l9.407 12.572c21.449 28.668 55.632 45.784 91.438 45.784 27.466 0 53.495-9.655 74.159-27.348v35.663h-8.969c-35.657 0-64.667 29.01-64.667 64.667 0 10.896 2.765 21.672 7.994 31.164a9.996 9.996 0 0 0 13.584 3.934c4.838-2.665 6.599-8.747 3.934-13.584-3.605-6.545-5.512-13.984-5.512-21.514 0-24.63 20.037-44.667 44.667-44.667h8.969v89.333h-23.5c-26.375 0-47.833 21.458-47.833 47.834 0 26.375 21.458 47.833 47.833 47.833h27.804c3.467 18.778 9.012 37.144 16.631 54.937a9.998 9.998 0 0 0 9.192 6.063h.018a9.998 9.998 0 0 0 9.189-6.097l.197-.465a258.657 258.657 0 0 0 16.273-54.438h11.363c11.304 0 20.5 9.196 20.5 20.5s-9.196 20.5-20.5 20.5h-.679c-5.522 0-10 4.478-10 10s4.478 10 10 10h.679c22.332 0 40.5-18.168 40.5-40.5s-18.168-40.5-40.5-40.5h-8.519a261.104 261.104 0 0 0 1.352-26.533v-29.134h6.667c35.657 0 64.666-29.009 64.666-64.666s-29.009-64.667-64.666-64.667h-6.667v-35.663c20.665 17.694 46.693 27.348 74.159 27.348 35.805 0 69.986-17.115 91.438-45.784l9.407-12.572c17.764-14.026 29.262-35.635 29.554-59.904 13.299-14.411 21.442-33.648 21.442-54.757 0-3.086-1.425-6-3.861-7.895zM218.084 190.46c-17.751 17.558-41.276 27.227-66.242 27.227-22.243 0-43.724-8.01-60.533-22.065a78.15 78.15 0 0 0 7.627.379h16.746c5.522 0 10-4.478 10-10s-4.478-10-10-10H98.936c-25.309 0-46.838-16.442-54.507-39.2a80.305 80.305 0 0 0 36.389 8.696l20.683.003h.001c5.521 0 9.999-4.477 10-9.999.001-5.522-4.476-10-9.999-10.001l-20.683-.003c-28.993-.004-53.313-20.401-59.369-47.598l33.665 8.559a114.961 114.961 0 0 0 28.314 3.543h69.819c12.695 0 23.299 9.108 25.213 21.658 3.416 22.392 22.335 38.643 44.984 38.643h2.555v32.328l-7.917 7.83zm-15.583 240.541c-15.347 0-27.833-12.486-27.833-27.833 0-15.348 12.486-27.834 27.833-27.834h23.5v28.539c0 9.112.479 18.159 1.415 27.128h-24.915zm63.5-26.533c0 23.284-3.327 46.135-9.911 68.213-6.703-22.261-10.089-45.307-10.089-68.808v-28.539h20v29.134zm0-49.134h-20V116.797c3.252.56 6.59.868 10 .868s6.748-.308 10-.868v238.537zm26.667-89.333c24.629 0 44.666 20.037 44.666 44.667 0 24.629-20.037 44.666-44.666 44.666h-6.667v-89.333h6.667zM256.001 97.664c-21.413 0-38.832-17.42-38.832-38.832S234.589 20 256.001 20s38.832 17.42 38.832 38.832-17.419 38.832-38.832 38.832zm175.181 27.833l-20.681.003c-5.523.001-10 4.479-9.999 10.001.001 5.523 4.479 10 10.001 9.999l20.683-.003a80.293 80.293 0 0 0 36.389-8.696c-7.669 22.758-29.199 39.2-54.507 39.2h-16.747c-5.522 0-10 4.478-10 10s4.478 10 10 10h16.746a78.13 78.13 0 0 0 7.626-.379c-16.81 14.055-38.29 22.065-60.532 22.065-24.966 0-48.491-9.669-66.242-27.226l-7.918-7.831v-32.328h2.555c22.649 0 41.568-16.251 44.984-38.643 1.914-12.55 12.518-21.658 25.213-21.658h69.819c9.54 0 19.066-1.191 28.315-3.543l33.664-8.559c-6.056 27.196-30.376 47.594-59.369 47.598zM223.07 494.931c-1.859-1.861-4.439-2.93-7.069-2.93s-5.21 1.069-7.07 2.93c-1.86 1.861-2.93 4.44-2.93 7.07s1.069 5.21 2.93 7.069c1.86 1.86 4.44 2.931 7.07 2.931s5.21-1.07 7.069-2.931c1.86-1.859 2.931-4.439 2.931-7.069s-1.07-5.21-2.931-7.07z"/></svg>