<svg xmlns="http://www.w3.org/2000/svg" viewBox="0 0 512.002 512.002"><path d="M459.666 293.504a40.11 40.11 0 0 0-10.371 1.37 39.871 39.871 0 0 0-9.951 4.161l-36.201-13.78A150.937 150.937 0 0 0 406 256.001c0-29.76-8.566-58.182-24.852-82.725l55.311-55.311a59.955 59.955 0 0 0 15.543 2.034c33.084 0 60-26.916 60-60 0-33.083-26.916-59.998-60-59.998s-60 26.915-60 59.998c0 5.293.682 10.496 2.031 15.54l-55.311 55.311a148.35 148.35 0 0 0-42.5-19.401l7.123-34.328c6.48-.868 12.469-3.81 17.174-8.512 11.693-11.696 11.693-30.728-.002-42.426-5.668-5.666-13.201-8.786-21.213-8.786-8.014 0-15.547 3.121-21.211 8.786-5.668 5.666-8.789 13.2-8.789 21.214 0 8.013 3.121 15.547 8.787 21.212a30.23 30.23 0 0 0 5.67 4.457l-7.129 34.349A152.31 152.31 0 0 0 255.999 106c-39.426 0-77.295 15.62-105.258 43.143l-70.79-51.13C78.914 76.875 61.391 59.999 40 59.999c-22.057 0-40 17.943-40 39.999 0 22.057 17.943 40.001 40 40.001a39.86 39.86 0 0 0 10.688-1.444l70.754 51.103c-10.125 20.533-15.443 43.286-15.443 66.342 0 12.729 1.639 25.295 4.771 37.419l-33.357 11.016c-3.992-5.179-9.535-8.895-15.957-10.615a30.038 30.038 0 0 0-7.777-1.027c-13.547 0-25.457 9.146-28.965 22.241-4.281 15.978 5.234 32.46 21.211 36.742a30.065 30.065 0 0 0 7.779 1.028c13.547 0 25.457-9.146 28.965-22.24a30.101 30.101 0 0 0 1.025-7.14l33.352-11.015a150.283 150.283 0 0 0 32.098 48.847l-51.129 70.791C76.877 433.086 60 450.609 60 472c0 22.056 17.943 40.001 40.002 40.001C122.057 512.001 140 494.056 140 472c0-3.652-.484-7.229-1.443-10.689l51.1-70.754c20.535 10.127 43.289 15.444 66.344 15.444 26.473 0 51.748-6.857 73.805-19.302l30.174 45.983a29.838 29.838 0 0 0-6.133 18.147c0 16.542 13.459 29.999 30.004 29.999 16.541 0 29.998-13.457 29.998-29.999s-13.457-29.999-29.998-29.999c-2.467 0-4.861.305-7.156.869l-30.166-45.968c15.443-11.693 28.691-26.457 38.834-43.746l36.213 13.784c5.287 16.437 20.662 27.751 38.057 27.749 3.49 0 6.979-.461 10.371-1.371 10.32-2.765 18.945-9.383 24.289-18.636 5.342-9.253 6.76-20.033 3.994-30.353-4.682-17.46-20.562-29.654-38.621-29.654zM63.35 325.387c-1.17 4.367-5.137 7.417-9.647 7.417a10.04 10.04 0 0 1-2.601-.346c-5.326-1.427-8.498-6.922-7.07-12.249 1.17-4.366 5.137-7.416 9.646-7.416.869 0 1.744.116 2.602.346a9.933 9.933 0 0 1 6.072 4.66 9.932 9.932 0 0 1 .998 7.588zm320.5 115.442c5.513 0 9.998 4.485 9.998 9.999s-4.484 9.999-9.998 9.999c-5.516 0-10.004-4.486-10.004-9.999 0-5.514 4.488-9.999 10.004-9.999zM292.236 40.322a9.927 9.927 0 0 1 7.068-2.928 9.939 9.939 0 0 1 7.07 2.928c3.898 3.899 3.898 10.244.002 14.142a9.942 9.942 0 0 1-7.072 2.93 9.925 9.925 0 0 1-7.07-2.93 9.926 9.926 0 0 1-2.93-7.07 9.934 9.934 0 0 1 2.932-7.072zm184.735 303.189a19.873 19.873 0 0 1-12.145 9.318 20.078 20.078 0 0 1-5.195.689c-9.023.001-16.959-6.098-19.295-14.807a21.664 21.664 0 0 1-.438-2.032 10 10 0 0 0-6.313-7.737l-49.248-18.746a9.997 9.997 0 0 0-12.465 4.801c-10.359 20.304-25.465 37.034-43.578 49.149-.328.167-.65.349-.965.555-.305.2-.592.415-.867.64-20.576 13.264-44.873 20.66-70.463 20.66-22.605 0-44.871-5.894-64.389-17.044a9.995 9.995 0 0 0-13.066 2.828l-59.275 82.072a10.001 10.001 0 0 0-1.018 9.951 19.85 19.85 0 0 1 1.748 8.192c0 11.028-8.971 20.001-19.998 20.001-11.029 0-20.002-8.972-20.002-20.001.001-11.029 8.974-20.001 20.003-20.001.674 0 1.359.035 2.041.104 3.543.358 7.023-1.2 9.113-4.094l59.297-82.099a10 10 0 0 0-1.414-13.286c-27.354-24.632-43.041-59.851-43.041-96.624 0-22.608 5.895-44.873 17.045-64.387a10 10 0 0 0-2.828-13.067l-82.074-59.278a10.003 10.003 0 0 0-9.953-1.015A19.85 19.85 0 0 1 40 119.999c-11.027 0-20-8.973-20-20.001 0-11.027 8.973-19.999 20-19.999s20 8.972 20 19.999c0 .679-.035 1.367-.104 2.044a10.004 10.004 0 0 0 4.094 9.115l82.1 59.293a10 10 0 0 0 13.285-1.415c24.631-27.352 59.85-43.038 96.625-43.038 8.867 0 17.598.878 26.1 2.603.111.027.219.063.332.086.061.012.119.017.18.028 18.465 3.823 35.852 11.639 51.238 23.161a9.996 9.996 0 0 0 13.064-.934l65.6-65.601a9.995 9.995 0 0 0 2.238-10.723 39.884 39.884 0 0 1-2.75-14.62c0-22.055 17.943-39.998 40-39.998 22.055 0 40 17.943 40 39.998 0 22.056-17.945 40-40 40a39.83 39.83 0 0 1-14.621-2.753 10.003 10.003 0 0 0-10.725 2.238l-65.602 65.603a10 10 0 0 0-.932 13.065C377.051 200.754 386 227.674 386 256c0 11.162-1.42 22.257-4.221 32.978a10 10 0 0 0 6.117 11.873l49.238 18.742a9.992 9.992 0 0 0 9.875-1.594 19.857 19.857 0 0 1 7.461-3.807 20.1 20.1 0 0 1 5.195-.689c9.024 0 16.961 6.099 19.301 14.832a19.865 19.865 0 0 1-1.995 15.176z"/><path d="M214.66 164.398c-2.76-4.782-8.873-6.422-13.66-3.661a109.824 109.824 0 0 0-49.605 61.235c-1.709 5.252 1.164 10.895 6.416 12.603a9.999 9.999 0 0 0 3.096.494c4.213 0 8.133-2.685 9.508-6.909A89.845 89.845 0 0 1 211 178.058c4.783-2.761 6.422-8.877 3.66-13.66zM156 245.674c-5.521 0-10 4.477-10 10V256c0 5.523 4.479 10 10 10 5.523 0 10-4.477 10-10v-.326c0-5.523-4.477-10-10-10zm198.185 31.748c-5.254-1.71-10.896 1.167-12.601 6.418A89.835 89.835 0 0 1 301 333.939c-4.781 2.761-6.422 8.877-3.66 13.66A9.996 9.996 0 0 0 311 351.26a109.793 109.793 0 0 0 49.603-61.237c1.707-5.251-1.165-10.893-6.418-12.601zM356.002 246c-5.524 0-10 4.477-10 10v.321c0 5.523 4.476 10 10 10 5.521 0 10-4.477 10-10V256c0-5.523-4.479-10-10-10zm-71.246-64.136c-22.055 0-39.998 17.944-39.998 40.001 0 22.056 17.943 40.001 39.998 40.001 22.057 0 40.002-17.945 40.002-40.001 0-22.057-17.945-40.001-40.002-40.001zm0 60.002c-11.027 0-19.998-8.972-19.998-20.001 0-11.029 8.971-20.001 19.998-20.001 11.029 0 20.002 8.972 20.002 20.001 0 11.029-8.973 20.001-20.002 20.001zm-67.512 28.265c-16.543 0-30 13.458-30 29.999 0 16.542 13.457 30 30 30s30-13.457 30-30c0-16.541-13.457-29.999-30-29.999zm0 39.999c-5.514 0-10-4.486-10-10s4.486-9.999 10-9.999 10 4.485 10 9.999-4.486 10-10 10z"/></svg>