<?xml version="1.0"?>
<svg xmlns="http://www.w3.org/2000/svg" viewBox="0 0 64 64" width="512" height="512"><g id="outline"><path d="M61.707,16.293l-8-8A1,1,0,0,0,53,8H3A1,1,0,0,0,2,9V55a1,1,0,0,0,1,1H61a1,1,0,0,0,1-1V17A1,1,0,0,0,61.707,16.293ZM54,11.414,58.586,16H54ZM4,54V10H52v7a1,1,0,0,0,1,1h7V54Z"/><path d="M13,12H7a1,1,0,0,0-1,1V51a1,1,0,0,0,1,1h6a1,1,0,0,0,1-1V13A1,1,0,0,0,13,12ZM12,50H8V45h2V43H8V39h2V37H8V33h2V31H8V27h2V25H8V21h2V19H8V14h4Z"/><path d="M49,46V32h5V20H34V16H18V32h3V46ZM23,44V32h3V26H24v4H20V18H32v6h2V22H52v8H44v2h3V44H39V36H25v8Zm4,0V38h2v6Zm4,0V38h2v6Zm4,0V38h2v6Z"/><polygon points="40 26 38 26 38 30 34 30 34 26 32 26 32 30 30 30 30 32 40 32 40 26"/><polygon points="51 48 36 48 36 52 38 52 38 50 53 50 53 36 55 36 55 34 51 34 51 48"/><polygon points="36 18 46 18 46 16 38 16 38 12 18 12 18 14 36 14 36 18"/><rect x="48" y="16" width="2" height="2"/></g></svg>
