<svg height="512pt" viewBox="0 0 512 512" width="512pt" xmlns="http://www.w3.org/2000/svg"><path d="M502 109.648h-59.648v-20H502c5.523 0 10-4.476 10-10 0-5.523-4.477-10-10-10h-59.648V57c0-5.523-4.477-10-10-10-5.524 0-10 4.477-10 10v112.824c0 53.031-43.145 96.176-96.176 96.176H286v-20h40.176c42.004 0 76.176-34.172 76.176-76.176V10c0-5.523-4.477-10-10-10-5.524 0-10 4.477-10 10v59.648H335.89C275.297 69.648 226 118.945 226 179.54V226h-40.176c-15.953 0-31.426 3.191-45.98 9.488-5.07 2.192-7.403 8.078-5.211 13.149a10.005 10.005 0 0 0 9.183 6.031 9.982 9.982 0 0 0 3.965-.824c12.035-5.203 24.836-7.844 38.043-7.844H226v20h-40.176c-42.004 0-76.176 34.172-76.176 76.176V502c0 5.523 4.477 10 10 10 5.524 0 10-4.477 10-10v-59.648h40.176c64.059 0 116.176-52.118 116.176-116.176V286h40.176c64.058 0 116.176-52.117 116.176-116.176v-40.176H502c5.523 0 10-4.476 10-10 0-5.523-4.477-10-10-10zm-119.648 47.067l-27.067-27.067h27.067zm-54.664-26.38l53.007 53.009a55.868 55.868 0 0 1-8.246 18.281l-63.832-63.832a49.516 49.516 0 0 1 19.07-7.457zm30.675 85.49a55.909 55.909 0 0 1-18.133 8.394l-53.445-53.442a49.593 49.593 0 0 1 7.617-18.914zM286 198.272L313.727 226H286zm-156.352 155.68l28.399 28.399h-28.399zm54.754 26.469l-52.824-52.824a55.95 55.95 0 0 1 8.527-18.004l62.301 62.3a55.95 55.95 0 0 1-18.004 8.528zm-11.55-92.895l51.62 51.621a55.924 55.924 0 0 1-8.093 18.434l-61.965-61.96a55.98 55.98 0 0 1 18.438-8.095zM226 312.391L199.61 286H226zm40 13.785c0 53.031-43.145 96.176-96.176 96.176h-40.176v-20h40.176c42.004 0 76.176-34.172 76.176-76.176V179.539c0-49.566 40.324-89.89 89.89-89.89h46.462v20H335.89c-19.079 0-36.391 7.69-49.016 20.128-.07.07-.148.13-.219.2-.023.023-.047.05-.07.078C273.879 142.719 266 160.227 266 179.539zm-148.965-51.145l.047-.047c3.828-3.972 3.766-10.336-.2-14.171-3.964-3.836-10.327-3.696-14.171.261s-3.797 10.324.152 14.172a9.935 9.935 0 0 0 6.957 2.817c2.621 0 5.246-1.016 7.215-3.032zM94.082 287.84c-4.988-2.363-10.953-.235-13.316 4.758-7.38 15.574-11.118 32.254-11.118 49.578v40.176H10c-5.523 0-10 4.476-10 10 0 5.523 4.477 10 10 10h59.648v20H10c-5.523 0-10 4.476-10 10 0 5.523 4.477 10 10 10h59.648V502c0 5.523 4.477 10 10 10 5.524 0 10-4.477 10-10V342.176c0-14.34 3.09-28.14 9.192-41.02 2.363-4.988.234-10.953-4.758-13.316zM432.352 20c2.628 0 5.207-1.07 7.07-2.93 1.86-1.86 2.93-4.441 2.93-7.07s-1.07-5.21-2.93-7.07a10.087 10.087 0 0 0-7.07-2.93c-2.633 0-5.211 1.07-7.07 2.93a10.08 10.08 0 0 0-2.93 7.07c0 2.64 1.07 5.21 2.93 7.07a10.073 10.073 0 0 0 7.07 2.93zm0 0"/></svg>