<svg height="512pt" viewBox="-4 0 511 512" width="512pt" xmlns="http://www.w3.org/2000/svg"><path d="M122.176 121.723c-.473.511-.942 1.023-1.406 1.535-2.778 3.074-2.543 7.816.527 10.594a7.475 7.475 0 0 0 5.031 1.941 7.475 7.475 0 0 0 5.563-2.469c.43-.472.859-.945 1.297-1.414a7.502 7.502 0 0 0-.415-10.601 7.504 7.504 0 0 0-10.597.414zm-16.617 34.067a7.491 7.491 0 0 0 10.402-2.059c.355-.532.715-1.063 1.078-1.594a7.501 7.501 0 0 0-1.95-10.426 7.503 7.503 0 0 0-10.425 1.95c-.39.573-.781 1.148-1.164 1.722a7.502 7.502 0 0 0 2.059 10.406zm-12.371 24a7.483 7.483 0 0 0 3.21.726 7.5 7.5 0 0 0 6.782-4.29c.273-.574.547-1.144.828-1.718a7.5 7.5 0 0 0-3.434-10.035 7.497 7.497 0 0 0-10.035 3.433c-.309.63-.613 1.258-.91 1.89a7.5 7.5 0 0 0 3.558 9.993zm74.664-78.224c1.32 0 2.656-.347 3.87-1.082.551-.332 1.102-.66 1.657-.988a7.5 7.5 0 0 0 2.637-10.273 7.493 7.493 0 0 0-10.27-2.637c-.594.348-1.187.703-1.777 1.059a7.502 7.502 0 0 0 3.883 13.921zm-25.172.993c-.54.437-1.078.875-1.614 1.32-3.195 2.633-3.648 7.36-1.011 10.558a7.49 7.49 0 0 0 5.789 2.727c1.68 0 3.37-.562 4.77-1.715.491-.406.984-.808 1.48-1.21a7.497 7.497 0 0 0 1.133-10.548 7.504 7.504 0 0 0-10.547-1.132zm49.215-13.211a7.5 7.5 0 0 0 2.906-.59l.191-.082a7.495 7.495 0 0 0 4.051-9.801 7.5 7.5 0 0 0-9.805-4.05l-.258.109a7.499 7.499 0 0 0-4 9.824 7.5 7.5 0 0 0 6.915 4.59zM79.805 273.82a7.504 7.504 0 0 0-6.235 8.586c.11.684.223 1.367.34 2.051.617 3.66 3.793 6.246 7.387 6.246a7.5 7.5 0 0 0 7.402-8.754c-.105-.629-.21-1.262-.312-1.894-.649-4.09-4.489-6.887-8.582-6.235zm204.89 155.836c-.636.04-1.273.074-1.914.106a7.498 7.498 0 1 0 .352 14.988c.12 0 .242 0 .363-.008.692-.031 1.387-.066 2.078-.11a7.497 7.497 0 0 0 7.047-7.925c-.242-4.137-3.785-7.285-7.926-7.05zm-25.882-.375c-.637-.058-1.274-.117-1.915-.18-4.101-.406-7.789 2.614-8.191 6.735a7.5 7.5 0 0 0 6.734 8.195c.692.067 1.383.133 2.07.192a7.5 7.5 0 0 0 8.121-6.824 7.497 7.497 0 0 0-6.82-8.118zm51.531-3.027c-.63.133-1.254.258-1.883.383a7.5 7.5 0 0 0 2.91 14.715c.68-.133 1.36-.274 2.04-.415a7.5 7.5 0 1 0-3.067-14.683zM433.39 323.129a7.5 7.5 0 0 0-9.761 4.144 237.9 237.9 0 0 1-.73 1.786 7.501 7.501 0 0 0 6.921 10.378 7.5 7.5 0 0 0 6.93-4.625c.266-.636.527-1.277.785-1.917a7.499 7.499 0 0 0-4.144-9.766zm-22.171 29.019a7.498 7.498 0 0 0 2.57 10.29 7.449 7.449 0 0 0 3.852 1.07 7.485 7.485 0 0 0 6.437-3.64c.356-.59.707-1.184 1.059-1.782a7.502 7.502 0 0 0-2.668-10.266 7.502 7.502 0 0 0-10.266 2.668c-.328.555-.656 1.11-.984 1.66zM195.965 325.16a7.495 7.495 0 0 0-.258 10.602c16.977 17.82 26.324 41.195 26.324 65.812 0 18.14-5.047 35.543-14.469 50.57v-16.69c0-3.224-1.257-6.255-3.535-8.536l-9.797-9.797a11.99 11.99 0 0 0-8.535-3.535h-32.418v-51.863c0-3.227-1.257-6.258-3.535-8.54l-10.953-10.949a11.984 11.984 0 0 0-8.535-3.535h-23.16l-12.602-12.605v-14.41c10.278-3.676 21.055-5.536 32.113-5.536 15.758 0 31.383 3.93 45.184 11.364a7.5 7.5 0 0 0 7.113-13.207c-15.98-8.61-34.062-13.157-52.297-13.157-14.714 0-29.015 2.848-42.496 8.473l-.093.04c-41.211 17.237-67.84 57.23-67.84 101.913 0 17.238 3.863 33.75 11.48 49.074a110.257 110.257 0 0 0 14.645 22.25C63.344 497.746 94.074 512 126.605 512c3.57 0 7.157-.172 10.645-.508 25.715-2.46 49.883-13.988 68.066-32.469.028-.027.055-.05.082-.078a.104.104 0 0 1 .02-.023c20.387-20.77 31.613-48.238 31.613-77.348 0-28.488-10.816-55.535-30.46-76.156-2.86-3-7.61-3.117-10.606-.258zm-116.473-6.594v8.743a12.01 12.01 0 0 0 3.535 8.535l14.32 14.32a11.984 11.984 0 0 0 8.536 3.535h23.16l9.234 9.235v53.582c0 6.656 5.414 12.07 12.07 12.07h34.133l8.083 8.082v33.844c-13.45 12.863-30.356 21.527-48.528 24.894v-23.742a12.13 12.13 0 0 0-3.539-8.535l-6.16-6.16v-12.461c0-3.227-1.254-6.258-3.535-8.535l-9.973-9.98v-16.794c0-19.004-15.46-34.469-34.469-34.469H67.602a12 12 0 0 0-6.63 1.985l-14.87 9.77a12.031 12.031 0 0 0-5.45 10.093v16.676c0 6.656 5.414 12.07 12.07 12.07h17.524v8.2l-6.293 6.292h-24.8c-5.29-12.046-7.977-24.886-7.977-38.242 0-34.746 18.637-66.199 48.316-83.008zM53.746 463.203a94.922 94.922 0 0 1-6.336-8.387h17.758c3.18 0 6.289-1.289 8.539-3.539l7.984-7.992a11.963 11.963 0 0 0 3.555-8.55v-12.337c0-6.656-5.418-12.07-12.074-12.07h-17.52v-12.172l12.828-8.422h17.88c10.734 0 19.468 8.73 19.468 19.47v18.003c0 3.238 1.262 6.273 3.535 8.535l9.977 9.977v12.465c0 3.21 1.25 6.238 3.535 8.535l6.16 6.16v24.066c-.812.02-1.62.059-2.43.059-28.113-.004-54.671-12.32-72.859-33.8zm171.027-168.988c30.915 30.91 72.012 47.933 115.727 47.933 43.719 0 84.816-17.023 115.73-47.933 30.91-30.914 47.934-72.012 47.934-115.727S487.141 93.672 456.23 62.762c-16.878-16.88-36.718-29.598-58.968-37.809a7.506 7.506 0 0 0-9.637 4.438 7.5 7.5 0 0 0 4.441 9.632 146.974 146.974 0 0 1 37.04 20.07c-5.516 15.618-13.817 32.333-24.727 49.759a7.502 7.502 0 0 0 6.351 11.48 7.502 7.502 0 0 0 6.364-3.523c10.304-16.461 18.433-32.407 24.246-47.543a157.226 157.226 0 0 1 4.281 4.101c15.164 15.164 26.64 33.031 34 52.512-4.82 15.898-12.719 32.871-23.484 50.45a7.497 7.497 0 0 0 2.48 10.312 7.5 7.5 0 0 0 10.313-2.48c7.02-11.47 12.902-22.735 17.605-33.692a151.297 151.297 0 0 1 2.024 14.554c-15.141 32.008-38.606 64.387-67.868 93.653a7.497 7.497 0 0 0 0 10.605 7.475 7.475 0 0 0 5.301 2.2c1.922 0 3.84-.735 5.305-2.2 22.5-22.496 41.719-46.828 56.629-71.523-4.168 32.406-18.82 62.367-42.305 85.847-28.078 28.083-65.41 43.543-105.117 43.543-9.52 0-18.899-.898-28.05-2.636 33.655-14.457 69.812-39.871 102.01-72.067 10.716-10.715 20.79-21.968 29.938-33.445a7.5 7.5 0 0 0-11.726-9.352c-8.805 11.04-18.5 21.872-28.82 32.192-37.07 37.074-79.301 64.648-115.97 75.762-19.476-7.36-37.34-18.832-52.503-33.997-28.078-28.078-43.543-65.41-43.543-105.12 0-1.047.02-2.094.039-3.137 28.027-15.407 56.46-37.16 82.394-63.094 17.145-17.149 32.414-35.293 45.383-53.934a7.5 7.5 0 1 0-12.312-8.566c-12.461 17.914-27.157 35.375-43.68 51.894-22.25 22.25-46.348 41.274-70.316 55.579 4.504-31.641 19.03-60.856 42.035-83.86 33.215-33.215 78.996-48.566 125.594-42.129 4.101.567 7.89-2.297 8.457-6.398a7.5 7.5 0 0 0-6.403-8.457c-24.523-3.39-49.894-1.14-73.367 6.508-24.621 8.02-46.453 21.433-64.887 39.87-30.91 30.91-47.937 72.009-47.937 115.727 0 43.715 17.023 84.813 47.933 115.727zm0 0"/><path d="M288.176 230.809c-15.918 11.285-31.68 20.664-46.856 27.875a7.498 7.498 0 0 0-3.554 9.992 7.492 7.492 0 0 0 9.992 3.554c15.957-7.582 32.472-17.402 49.094-29.187a7.498 7.498 0 0 0 1.78-10.453c-2.398-3.38-7.077-4.18-10.456-1.781zm59.816-40.621a7.473 7.473 0 0 0 5.254 2.148 7.48 7.48 0 0 0 5.352-2.246c12.011-12.238 23.289-25.012 33.515-37.969a7.5 7.5 0 0 0-1.242-10.535 7.498 7.498 0 0 0-10.531 1.242c-9.895 12.535-20.809 24.899-32.445 36.754a7.498 7.498 0 0 0 .097 10.606zm-12.508 18.296h.11c4.144 0 7.5-3.355 7.5-7.5a7.5 7.5 0 0 0-7.5-7.5h-.11a7.5 7.5 0 0 0-7.5 7.5c0 4.145 3.356 7.5 7.5 7.5zm-3.949-110.726h.031a7.5 7.5 0 0 0 7.5-7.465 7.5 7.5 0 0 0-7.464-7.535h-.149a7.5 7.5 0 0 0-7.496 7.469 7.499 7.499 0 0 0 7.465 7.53zm75.11 177.086h-.032a7.5 7.5 0 0 0-7.5 7.469 7.496 7.496 0 0 0 7.465 7.53h.149a7.499 7.499 0 0 0 7.496-7.464 7.5 7.5 0 0 0-7.465-7.535zM376.7 359.7c-27.59 0-50.04 22.448-50.04 50.038 0 27.594 22.45 50.04 50.04 50.04a49.91 49.91 0 0 0 16.093-2.66c3.926-1.333 6.023-5.59 4.691-9.513s-5.59-6.023-9.515-4.69a34.93 34.93 0 0 1-11.27 1.862c-19.32 0-35.039-15.718-35.039-35.039 0-19.32 15.719-35.039 35.04-35.039 19.32 0 35.038 15.719 35.038 35.04a34.737 34.737 0 0 1-3.57 15.421 7.499 7.499 0 0 0 3.426 10.04 7.494 7.494 0 0 0 10.035-3.427c3.39-6.902 5.11-14.316 5.11-22.035 0-27.59-22.446-50.039-50.04-50.039zM87.426 264.656c20.52 0 37.21-16.691 37.21-37.21 0-20.52-16.69-37.212-37.21-37.212s-37.211 16.692-37.211 37.211c0 20.52 16.691 37.211 37.21 37.211zm0-59.426c12.25 0 22.21 9.965 22.21 22.215 0 12.246-9.96 22.211-22.21 22.211-12.246 0-22.211-9.965-22.211-22.21 0-12.25 9.965-22.216 22.21-22.216zM282.914 15h.146a7.503 7.503 0 0 0 7.5-7.469c.02-4.14-3.325-7.511-7.47-7.531h-.144a7.497 7.497 0 0 0-7.496 7.469A7.499 7.499 0 0 0 282.914 15zm-26.937 344.582a7.503 7.503 0 0 0-7.47-7.535h-.139a7.5 7.5 0 0 0-7.5 7.469 7.496 7.496 0 0 0 7.464 7.53h.145a7.5 7.5 0 0 0 7.5-7.464zm7.054-338.168h.114c4.14 0 7.5-3.36 7.5-7.5 0-4.14-3.36-7.5-7.5-7.5h-.114a7.5 7.5 0 0 0-7.5 7.5 7.5 7.5 0 0 0 7.5 7.5zM37.05 242.676h.146a7.503 7.503 0 0 0 7.5-7.469 7.497 7.497 0 0 0-7.468-7.531h-.146a7.496 7.496 0 0 0-7.496 7.465 7.5 7.5 0 0 0 7.465 7.535zm209.395 98.922c.016-4.141-3.328-7.516-7.468-7.532h-.11c-4.125-.015-7.515 3.325-7.535 7.465a7.5 7.5 0 0 0 7.469 7.535h.144a7.503 7.503 0 0 0 7.5-7.468zM24.305 276.46h.039a7.499 7.499 0 0 0 7.496-7.464l.015-2.918a7.502 7.502 0 0 0-7.464-7.535h-.036a7.502 7.502 0 0 0-7.5 7.465l-.015 2.918a7.502 7.502 0 0 0 7.465 7.535zm-.008 11.77h-.035a7.502 7.502 0 0 0-7.5 7.465l-.012 2.918a7.5 7.5 0 0 0 7.465 7.535h.035a7.503 7.503 0 0 0 7.5-7.468l.012-2.914a7.5 7.5 0 0 0-7.465-7.536zm13.426-13.347h-.035a7.502 7.502 0 0 0-7.5 7.465 7.495 7.495 0 0 0 7.464 7.535l2.914.015h.04a7.499 7.499 0 0 0 7.496-7.464c.023-4.141-3.32-7.516-7.465-7.536zm-19.305 7.457a7.502 7.502 0 0 0-7.465-7.535l-2.918-.012H8a7.502 7.502 0 0 0-7.5 7.465 7.502 7.502 0 0 0 7.465 7.535l2.918.012h.035a7.5 7.5 0 0 0 7.5-7.465zm456.32 51.117c-4.125 0-7.476 3.336-7.5 7.465l-.011 2.918a7.502 7.502 0 0 0 7.464 7.535h.036a7.502 7.502 0 0 0 7.5-7.465l.011-2.918c.024-4.14-3.32-7.515-7.465-7.535h-.035zm-.054 29.688h-.036a7.5 7.5 0 0 0-7.5 7.464l-.015 2.914a7.5 7.5 0 0 0 7.465 7.536h.039a7.496 7.496 0 0 0 7.496-7.465l.015-2.918a7.496 7.496 0 0 0-7.464-7.531zm16.339-13.332l-2.918-.016h-.035c-4.125 0-7.476 3.336-7.5 7.465a7.502 7.502 0 0 0 7.465 7.535l2.918.015h.035a7.503 7.503 0 0 0 7.5-7.468 7.494 7.494 0 0 0-7.465-7.531zm-29.687-.094l-2.914-.016h-.04a7.499 7.499 0 0 0-7.495 7.465 7.492 7.492 0 0 0 7.465 7.535l2.914.016h.039a7.499 7.499 0 0 0 7.496-7.465 7.5 7.5 0 0 0-7.465-7.535zM128.121 35.672h.04a7.498 7.498 0 0 0 7.495-7.461l.016-2.918a7.505 7.505 0 0 0-7.461-7.54h-.04a7.502 7.502 0 0 0-7.5 7.466l-.015 2.914a7.5 7.5 0 0 0 7.465 7.539zm7.461 19.308a7.5 7.5 0 0 0-7.465-7.539h-.039a7.498 7.498 0 0 0-7.496 7.461l-.016 2.918c-.023 4.14 3.32 7.516 7.461 7.54h.04a7.502 7.502 0 0 0 7.5-7.465zm5.887-5.882l2.914.011h.039a7.499 7.499 0 0 0 7.496-7.464 7.5 7.5 0 0 0-7.465-7.536l-2.914-.011h-.035a7.5 7.5 0 0 0-.035 15zm-29.688-.094l2.918.016h.035a7.502 7.502 0 0 0 7.5-7.465c.02-4.145-3.324-7.52-7.464-7.535l-2.918-.016h-.036a7.502 7.502 0 0 0-7.5 7.465 7.502 7.502 0 0 0 7.465 7.535zm0 0"/></svg>