<svg xmlns="http://www.w3.org/2000/svg" viewBox="0 0 64 64" width="512" height="512"><path d="M61.707 16.293l-8-8A1 1 0 0 0 53 8H3a1 1 0 0 0-1 1v46a1 1 0 0 0 1 1h58a1 1 0 0 0 1-1V17a1 1 0 0 0-.293-.707zM54 11.414L58.586 16H54zM4 54V10h48v7a1 1 0 0 0 1 1h7v36z"/><path d="M13 12H7a1 1 0 0 0-1 1v38a1 1 0 0 0 1 1h6a1 1 0 0 0 1-1V13a1 1 0 0 0-1-1zm-1 38H8v-5h2v-2H8v-4h2v-2H8v-4h2v-2H8v-4h2v-2H8v-4h2v-2H8v-5h4zm37-4V32h5V20H34v-4H18v16h3v14zm-26-2V32h3v-6h-2v4h-4V18h12v6h2v-2h18v8h-8v2h3v12h-8v-8H25v8zm4 0v-6h2v6zm4 0v-6h2v6zm4 0v-6h2v6z"/><path d="M40 26h-2v4h-4v-4h-2v4h-2v2h10v-6zm11 22H36v4h2v-2h15V36h2v-2h-4v14zM36 18h10v-2h-8v-4H18v2h18v4zm12-2h2v2h-2z"/></svg>